<mxfile host="app.diagrams.net" agent="Mozilla/5.0 (X11; Linux x86_64) AppleWebKit/537.36 (KHTML, like Gecko) Chrome/134.0.0.0 Safari/537.36" version="26.0.16">
  <diagram name="Page-1" id="9f46799a-70d6-7492-0946-bef42562c5a5">
    <mxGraphModel dx="1434" dy="788" grid="0" gridSize="10" guides="1" tooltips="1" connect="1" arrows="1" fold="1" page="0" pageScale="1" pageWidth="1100" pageHeight="850" background="none" math="0" shadow="0">
      <root>
        <mxCell id="0" />
        <mxCell id="1" parent="0" />
        <mxCell id="-WjHHU-8ATl0b5DiGb8--2" value="forms" style="shape=table;startSize=30;container=1;collapsible=1;childLayout=tableLayout;fixedRows=1;rowLines=0;fontStyle=1;align=center;resizeLast=1;html=1;" vertex="1" parent="1">
          <mxGeometry x="239" y="363" width="292" height="480" as="geometry" />
        </mxCell>
        <mxCell id="-WjHHU-8ATl0b5DiGb8--3" value="" style="shape=tableRow;horizontal=0;startSize=0;swimlaneHead=0;swimlaneBody=0;fillColor=none;collapsible=0;dropTarget=0;points=[[0,0.5],[1,0.5]];portConstraint=eastwest;top=0;left=0;right=0;bottom=1;" vertex="1" parent="-WjHHU-8ATl0b5DiGb8--2">
          <mxGeometry y="30" width="292" height="30" as="geometry" />
        </mxCell>
        <mxCell id="-WjHHU-8ATl0b5DiGb8--4" value="PK" style="shape=partialRectangle;connectable=0;fillColor=none;top=0;left=0;bottom=0;right=0;fontStyle=1;overflow=hidden;whiteSpace=wrap;html=1;" vertex="1" parent="-WjHHU-8ATl0b5DiGb8--3">
          <mxGeometry width="30" height="30" as="geometry">
            <mxRectangle width="30" height="30" as="alternateBounds" />
          </mxGeometry>
        </mxCell>
        <mxCell id="-WjHHU-8ATl0b5DiGb8--5" value="id int NOT NULL ai" style="shape=partialRectangle;connectable=0;fillColor=none;top=0;left=0;bottom=0;right=0;align=left;spacingLeft=6;fontStyle=5;overflow=hidden;whiteSpace=wrap;html=1;" vertex="1" parent="-WjHHU-8ATl0b5DiGb8--3">
          <mxGeometry x="30" width="262" height="30" as="geometry">
            <mxRectangle width="262" height="30" as="alternateBounds" />
          </mxGeometry>
        </mxCell>
        <mxCell id="-WjHHU-8ATl0b5DiGb8--6" value="" style="shape=tableRow;horizontal=0;startSize=0;swimlaneHead=0;swimlaneBody=0;fillColor=none;collapsible=0;dropTarget=0;points=[[0,0.5],[1,0.5]];portConstraint=eastwest;top=0;left=0;right=0;bottom=0;" vertex="1" parent="-WjHHU-8ATl0b5DiGb8--2">
          <mxGeometry y="60" width="292" height="30" as="geometry" />
        </mxCell>
        <mxCell id="-WjHHU-8ATl0b5DiGb8--7" value="" style="shape=partialRectangle;connectable=0;fillColor=none;top=0;left=0;bottom=0;right=0;editable=1;overflow=hidden;whiteSpace=wrap;html=1;" vertex="1" parent="-WjHHU-8ATl0b5DiGb8--6">
          <mxGeometry width="30" height="30" as="geometry">
            <mxRectangle width="30" height="30" as="alternateBounds" />
          </mxGeometry>
        </mxCell>
        <mxCell id="-WjHHU-8ATl0b5DiGb8--8" value="name varchar(255)" style="shape=partialRectangle;connectable=0;fillColor=none;top=0;left=0;bottom=0;right=0;align=left;spacingLeft=6;overflow=hidden;whiteSpace=wrap;html=1;" vertex="1" parent="-WjHHU-8ATl0b5DiGb8--6">
          <mxGeometry x="30" width="262" height="30" as="geometry">
            <mxRectangle width="262" height="30" as="alternateBounds" />
          </mxGeometry>
        </mxCell>
        <mxCell id="-WjHHU-8ATl0b5DiGb8--9" value="" style="shape=tableRow;horizontal=0;startSize=0;swimlaneHead=0;swimlaneBody=0;fillColor=none;collapsible=0;dropTarget=0;points=[[0,0.5],[1,0.5]];portConstraint=eastwest;top=0;left=0;right=0;bottom=0;" vertex="1" parent="-WjHHU-8ATl0b5DiGb8--2">
          <mxGeometry y="90" width="292" height="30" as="geometry" />
        </mxCell>
        <mxCell id="-WjHHU-8ATl0b5DiGb8--10" value="" style="shape=partialRectangle;connectable=0;fillColor=none;top=0;left=0;bottom=0;right=0;editable=1;overflow=hidden;whiteSpace=wrap;html=1;" vertex="1" parent="-WjHHU-8ATl0b5DiGb8--9">
          <mxGeometry width="30" height="30" as="geometry">
            <mxRectangle width="30" height="30" as="alternateBounds" />
          </mxGeometry>
        </mxCell>
        <mxCell id="-WjHHU-8ATl0b5DiGb8--11" value="created_at datetime" style="shape=partialRectangle;connectable=0;fillColor=none;top=0;left=0;bottom=0;right=0;align=left;spacingLeft=6;overflow=hidden;whiteSpace=wrap;html=1;" vertex="1" parent="-WjHHU-8ATl0b5DiGb8--9">
          <mxGeometry x="30" width="262" height="30" as="geometry">
            <mxRectangle width="262" height="30" as="alternateBounds" />
          </mxGeometry>
        </mxCell>
        <mxCell id="-WjHHU-8ATl0b5DiGb8--12" value="" style="shape=tableRow;horizontal=0;startSize=0;swimlaneHead=0;swimlaneBody=0;fillColor=none;collapsible=0;dropTarget=0;points=[[0,0.5],[1,0.5]];portConstraint=eastwest;top=0;left=0;right=0;bottom=0;" vertex="1" parent="-WjHHU-8ATl0b5DiGb8--2">
          <mxGeometry y="120" width="292" height="30" as="geometry" />
        </mxCell>
        <mxCell id="-WjHHU-8ATl0b5DiGb8--13" value="" style="shape=partialRectangle;connectable=0;fillColor=none;top=0;left=0;bottom=0;right=0;editable=1;overflow=hidden;whiteSpace=wrap;html=1;" vertex="1" parent="-WjHHU-8ATl0b5DiGb8--12">
          <mxGeometry width="30" height="30" as="geometry">
            <mxRectangle width="30" height="30" as="alternateBounds" />
          </mxGeometry>
        </mxCell>
        <mxCell id="-WjHHU-8ATl0b5DiGb8--14" value="updated_at datetime" style="shape=partialRectangle;connectable=0;fillColor=none;top=0;left=0;bottom=0;right=0;align=left;spacingLeft=6;overflow=hidden;whiteSpace=wrap;html=1;" vertex="1" parent="-WjHHU-8ATl0b5DiGb8--12">
          <mxGeometry x="30" width="262" height="30" as="geometry">
            <mxRectangle width="262" height="30" as="alternateBounds" />
          </mxGeometry>
        </mxCell>
        <mxCell id="-WjHHU-8ATl0b5DiGb8--15" value="" style="shape=tableRow;horizontal=0;startSize=0;swimlaneHead=0;swimlaneBody=0;fillColor=none;collapsible=0;dropTarget=0;points=[[0,0.5],[1,0.5]];portConstraint=eastwest;top=0;left=0;right=0;bottom=0;" vertex="1" parent="-WjHHU-8ATl0b5DiGb8--2">
          <mxGeometry y="150" width="292" height="30" as="geometry" />
        </mxCell>
        <mxCell id="-WjHHU-8ATl0b5DiGb8--16" value="" style="shape=partialRectangle;connectable=0;fillColor=none;top=0;left=0;bottom=0;right=0;editable=1;overflow=hidden;whiteSpace=wrap;html=1;" vertex="1" parent="-WjHHU-8ATl0b5DiGb8--15">
          <mxGeometry width="30" height="30" as="geometry">
            <mxRectangle width="30" height="30" as="alternateBounds" />
          </mxGeometry>
        </mxCell>
        <mxCell id="-WjHHU-8ATl0b5DiGb8--17" value="reference int" style="shape=partialRectangle;connectable=0;fillColor=none;top=0;left=0;bottom=0;right=0;align=left;spacingLeft=6;overflow=hidden;whiteSpace=wrap;html=1;" vertex="1" parent="-WjHHU-8ATl0b5DiGb8--15">
          <mxGeometry x="30" width="262" height="30" as="geometry">
            <mxRectangle width="262" height="30" as="alternateBounds" />
          </mxGeometry>
        </mxCell>
        <mxCell id="-WjHHU-8ATl0b5DiGb8--18" value="" style="shape=tableRow;horizontal=0;startSize=0;swimlaneHead=0;swimlaneBody=0;fillColor=none;collapsible=0;dropTarget=0;points=[[0,0.5],[1,0.5]];portConstraint=eastwest;top=0;left=0;right=0;bottom=0;" vertex="1" parent="-WjHHU-8ATl0b5DiGb8--2">
          <mxGeometry y="180" width="292" height="30" as="geometry" />
        </mxCell>
        <mxCell id="-WjHHU-8ATl0b5DiGb8--19" value="" style="shape=partialRectangle;connectable=0;fillColor=none;top=0;left=0;bottom=0;right=0;editable=1;overflow=hidden;whiteSpace=wrap;html=1;" vertex="1" parent="-WjHHU-8ATl0b5DiGb8--18">
          <mxGeometry width="30" height="30" as="geometry">
            <mxRectangle width="30" height="30" as="alternateBounds" />
          </mxGeometry>
        </mxCell>
        <mxCell id="-WjHHU-8ATl0b5DiGb8--20" value="original_reference int" style="shape=partialRectangle;connectable=0;fillColor=none;top=0;left=0;bottom=0;right=0;align=left;spacingLeft=6;overflow=hidden;whiteSpace=wrap;html=1;" vertex="1" parent="-WjHHU-8ATl0b5DiGb8--18">
          <mxGeometry x="30" width="262" height="30" as="geometry">
            <mxRectangle width="262" height="30" as="alternateBounds" />
          </mxGeometry>
        </mxCell>
        <mxCell id="-WjHHU-8ATl0b5DiGb8--21" value="" style="shape=tableRow;horizontal=0;startSize=0;swimlaneHead=0;swimlaneBody=0;fillColor=none;collapsible=0;dropTarget=0;points=[[0,0.5],[1,0.5]];portConstraint=eastwest;top=0;left=0;right=0;bottom=0;" vertex="1" parent="-WjHHU-8ATl0b5DiGb8--2">
          <mxGeometry y="210" width="292" height="30" as="geometry" />
        </mxCell>
        <mxCell id="-WjHHU-8ATl0b5DiGb8--22" value="" style="shape=partialRectangle;connectable=0;fillColor=none;top=0;left=0;bottom=0;right=0;editable=1;overflow=hidden;whiteSpace=wrap;html=1;" vertex="1" parent="-WjHHU-8ATl0b5DiGb8--21">
          <mxGeometry width="30" height="30" as="geometry">
            <mxRectangle width="30" height="30" as="alternateBounds" />
          </mxGeometry>
        </mxCell>
        <mxCell id="-WjHHU-8ATl0b5DiGb8--23" value="version int" style="shape=partialRectangle;connectable=0;fillColor=none;top=0;left=0;bottom=0;right=0;align=left;spacingLeft=6;overflow=hidden;whiteSpace=wrap;html=1;" vertex="1" parent="-WjHHU-8ATl0b5DiGb8--21">
          <mxGeometry x="30" width="262" height="30" as="geometry">
            <mxRectangle width="262" height="30" as="alternateBounds" />
          </mxGeometry>
        </mxCell>
        <mxCell id="-WjHHU-8ATl0b5DiGb8--24" value="" style="shape=tableRow;horizontal=0;startSize=0;swimlaneHead=0;swimlaneBody=0;fillColor=none;collapsible=0;dropTarget=0;points=[[0,0.5],[1,0.5]];portConstraint=eastwest;top=0;left=0;right=0;bottom=0;" vertex="1" parent="-WjHHU-8ATl0b5DiGb8--2">
          <mxGeometry y="240" width="292" height="30" as="geometry" />
        </mxCell>
        <mxCell id="-WjHHU-8ATl0b5DiGb8--25" value="" style="shape=partialRectangle;connectable=0;fillColor=none;top=0;left=0;bottom=0;right=0;editable=1;overflow=hidden;whiteSpace=wrap;html=1;" vertex="1" parent="-WjHHU-8ATl0b5DiGb8--24">
          <mxGeometry width="30" height="30" as="geometry">
            <mxRectangle width="30" height="30" as="alternateBounds" />
          </mxGeometry>
        </mxCell>
        <mxCell id="-WjHHU-8ATl0b5DiGb8--26" value="type varchar(255)" style="shape=partialRectangle;connectable=0;fillColor=none;top=0;left=0;bottom=0;right=0;align=left;spacingLeft=6;overflow=hidden;whiteSpace=wrap;html=1;" vertex="1" parent="-WjHHU-8ATl0b5DiGb8--24">
          <mxGeometry x="30" width="262" height="30" as="geometry">
            <mxRectangle width="262" height="30" as="alternateBounds" />
          </mxGeometry>
        </mxCell>
        <mxCell id="-WjHHU-8ATl0b5DiGb8--27" value="" style="shape=tableRow;horizontal=0;startSize=0;swimlaneHead=0;swimlaneBody=0;fillColor=none;collapsible=0;dropTarget=0;points=[[0,0.5],[1,0.5]];portConstraint=eastwest;top=0;left=0;right=0;bottom=0;" vertex="1" parent="-WjHHU-8ATl0b5DiGb8--2">
          <mxGeometry y="270" width="292" height="30" as="geometry" />
        </mxCell>
        <mxCell id="-WjHHU-8ATl0b5DiGb8--28" value="" style="shape=partialRectangle;connectable=0;fillColor=none;top=0;left=0;bottom=0;right=0;editable=1;overflow=hidden;whiteSpace=wrap;html=1;" vertex="1" parent="-WjHHU-8ATl0b5DiGb8--27">
          <mxGeometry width="30" height="30" as="geometry">
            <mxRectangle width="30" height="30" as="alternateBounds" />
          </mxGeometry>
        </mxCell>
        <mxCell id="-WjHHU-8ATl0b5DiGb8--29" value="category varchar(255)" style="shape=partialRectangle;connectable=0;fillColor=none;top=0;left=0;bottom=0;right=0;align=left;spacingLeft=6;overflow=hidden;whiteSpace=wrap;html=1;" vertex="1" parent="-WjHHU-8ATl0b5DiGb8--27">
          <mxGeometry x="30" width="262" height="30" as="geometry">
            <mxRectangle width="262" height="30" as="alternateBounds" />
          </mxGeometry>
        </mxCell>
        <mxCell id="-WjHHU-8ATl0b5DiGb8--30" value="" style="shape=tableRow;horizontal=0;startSize=0;swimlaneHead=0;swimlaneBody=0;fillColor=none;collapsible=0;dropTarget=0;points=[[0,0.5],[1,0.5]];portConstraint=eastwest;top=0;left=0;right=0;bottom=0;" vertex="1" parent="-WjHHU-8ATl0b5DiGb8--2">
          <mxGeometry y="300" width="292" height="30" as="geometry" />
        </mxCell>
        <mxCell id="-WjHHU-8ATl0b5DiGb8--31" value="" style="shape=partialRectangle;connectable=0;fillColor=none;top=0;left=0;bottom=0;right=0;editable=1;overflow=hidden;whiteSpace=wrap;html=1;" vertex="1" parent="-WjHHU-8ATl0b5DiGb8--30">
          <mxGeometry width="30" height="30" as="geometry">
            <mxRectangle width="30" height="30" as="alternateBounds" />
          </mxGeometry>
        </mxCell>
        <mxCell id="-WjHHU-8ATl0b5DiGb8--32" value="code varchar(255) unique" style="shape=partialRectangle;connectable=0;fillColor=none;top=0;left=0;bottom=0;right=0;align=left;spacingLeft=6;overflow=hidden;whiteSpace=wrap;html=1;" vertex="1" parent="-WjHHU-8ATl0b5DiGb8--30">
          <mxGeometry x="30" width="262" height="30" as="geometry">
            <mxRectangle width="262" height="30" as="alternateBounds" />
          </mxGeometry>
        </mxCell>
        <mxCell id="-WjHHU-8ATl0b5DiGb8--33" value="" style="shape=tableRow;horizontal=0;startSize=0;swimlaneHead=0;swimlaneBody=0;fillColor=none;collapsible=0;dropTarget=0;points=[[0,0.5],[1,0.5]];portConstraint=eastwest;top=0;left=0;right=0;bottom=0;" vertex="1" parent="-WjHHU-8ATl0b5DiGb8--2">
          <mxGeometry y="330" width="292" height="30" as="geometry" />
        </mxCell>
        <mxCell id="-WjHHU-8ATl0b5DiGb8--34" value="" style="shape=partialRectangle;connectable=0;fillColor=none;top=0;left=0;bottom=0;right=0;editable=1;overflow=hidden;whiteSpace=wrap;html=1;" vertex="1" parent="-WjHHU-8ATl0b5DiGb8--33">
          <mxGeometry width="30" height="30" as="geometry">
            <mxRectangle width="30" height="30" as="alternateBounds" />
          </mxGeometry>
        </mxCell>
        <mxCell id="-WjHHU-8ATl0b5DiGb8--35" value="state varchar(255)" style="shape=partialRectangle;connectable=0;fillColor=none;top=0;left=0;bottom=0;right=0;align=left;spacingLeft=6;overflow=hidden;whiteSpace=wrap;html=1;" vertex="1" parent="-WjHHU-8ATl0b5DiGb8--33">
          <mxGeometry x="30" width="262" height="30" as="geometry">
            <mxRectangle width="262" height="30" as="alternateBounds" />
          </mxGeometry>
        </mxCell>
        <mxCell id="-WjHHU-8ATl0b5DiGb8--36" value="" style="shape=tableRow;horizontal=0;startSize=0;swimlaneHead=0;swimlaneBody=0;fillColor=none;collapsible=0;dropTarget=0;points=[[0,0.5],[1,0.5]];portConstraint=eastwest;top=0;left=0;right=0;bottom=0;" vertex="1" parent="-WjHHU-8ATl0b5DiGb8--2">
          <mxGeometry y="360" width="292" height="30" as="geometry" />
        </mxCell>
        <mxCell id="-WjHHU-8ATl0b5DiGb8--37" value="" style="shape=partialRectangle;connectable=0;fillColor=none;top=0;left=0;bottom=0;right=0;editable=1;overflow=hidden;whiteSpace=wrap;html=1;" vertex="1" parent="-WjHHU-8ATl0b5DiGb8--36">
          <mxGeometry width="30" height="30" as="geometry">
            <mxRectangle width="30" height="30" as="alternateBounds" />
          </mxGeometry>
        </mxCell>
        <mxCell id="-WjHHU-8ATl0b5DiGb8--38" value="rejected_reason varchar(255)" style="shape=partialRectangle;connectable=0;fillColor=none;top=0;left=0;bottom=0;right=0;align=left;spacingLeft=6;overflow=hidden;whiteSpace=wrap;html=1;" vertex="1" parent="-WjHHU-8ATl0b5DiGb8--36">
          <mxGeometry x="30" width="262" height="30" as="geometry">
            <mxRectangle width="262" height="30" as="alternateBounds" />
          </mxGeometry>
        </mxCell>
        <mxCell id="-WjHHU-8ATl0b5DiGb8--39" value="" style="shape=tableRow;horizontal=0;startSize=0;swimlaneHead=0;swimlaneBody=0;fillColor=none;collapsible=0;dropTarget=0;points=[[0,0.5],[1,0.5]];portConstraint=eastwest;top=0;left=0;right=0;bottom=0;" vertex="1" parent="-WjHHU-8ATl0b5DiGb8--2">
          <mxGeometry y="390" width="292" height="30" as="geometry" />
        </mxCell>
        <mxCell id="-WjHHU-8ATl0b5DiGb8--40" value="" style="shape=partialRectangle;connectable=0;fillColor=none;top=0;left=0;bottom=0;right=0;editable=1;overflow=hidden;whiteSpace=wrap;html=1;" vertex="1" parent="-WjHHU-8ATl0b5DiGb8--39">
          <mxGeometry width="30" height="30" as="geometry">
            <mxRectangle width="30" height="30" as="alternateBounds" />
          </mxGeometry>
        </mxCell>
        <mxCell id="-WjHHU-8ATl0b5DiGb8--41" value="user_id int" style="shape=partialRectangle;connectable=0;fillColor=none;top=0;left=0;bottom=0;right=0;align=left;spacingLeft=6;overflow=hidden;whiteSpace=wrap;html=1;" vertex="1" parent="-WjHHU-8ATl0b5DiGb8--39">
          <mxGeometry x="30" width="262" height="30" as="geometry">
            <mxRectangle width="262" height="30" as="alternateBounds" />
          </mxGeometry>
        </mxCell>
        <mxCell id="-WjHHU-8ATl0b5DiGb8--42" value="" style="shape=tableRow;horizontal=0;startSize=0;swimlaneHead=0;swimlaneBody=0;fillColor=none;collapsible=0;dropTarget=0;points=[[0,0.5],[1,0.5]];portConstraint=eastwest;top=0;left=0;right=0;bottom=0;" vertex="1" parent="-WjHHU-8ATl0b5DiGb8--2">
          <mxGeometry y="420" width="292" height="30" as="geometry" />
        </mxCell>
        <mxCell id="-WjHHU-8ATl0b5DiGb8--43" value="" style="shape=partialRectangle;connectable=0;fillColor=none;top=0;left=0;bottom=0;right=0;editable=1;overflow=hidden;whiteSpace=wrap;html=1;" vertex="1" parent="-WjHHU-8ATl0b5DiGb8--42">
          <mxGeometry width="30" height="30" as="geometry">
            <mxRectangle width="30" height="30" as="alternateBounds" />
          </mxGeometry>
        </mxCell>
        <mxCell id="-WjHHU-8ATl0b5DiGb8--44" value="reason_disabled varchar(255)" style="shape=partialRectangle;connectable=0;fillColor=none;top=0;left=0;bottom=0;right=0;align=left;spacingLeft=6;overflow=hidden;whiteSpace=wrap;html=1;" vertex="1" parent="-WjHHU-8ATl0b5DiGb8--42">
          <mxGeometry x="30" width="262" height="30" as="geometry">
            <mxRectangle width="262" height="30" as="alternateBounds" />
          </mxGeometry>
        </mxCell>
        <mxCell id="-WjHHU-8ATl0b5DiGb8--45" value="" style="shape=tableRow;horizontal=0;startSize=0;swimlaneHead=0;swimlaneBody=0;fillColor=none;collapsible=0;dropTarget=0;points=[[0,0.5],[1,0.5]];portConstraint=eastwest;top=0;left=0;right=0;bottom=0;" vertex="1" parent="-WjHHU-8ATl0b5DiGb8--2">
          <mxGeometry y="450" width="292" height="30" as="geometry" />
        </mxCell>
        <mxCell id="-WjHHU-8ATl0b5DiGb8--46" value="" style="shape=partialRectangle;connectable=0;fillColor=none;top=0;left=0;bottom=0;right=0;editable=1;overflow=hidden;whiteSpace=wrap;html=1;" vertex="1" parent="-WjHHU-8ATl0b5DiGb8--45">
          <mxGeometry width="30" height="30" as="geometry">
            <mxRectangle width="30" height="30" as="alternateBounds" />
          </mxGeometry>
        </mxCell>
        <mxCell id="-WjHHU-8ATl0b5DiGb8--47" value="enable tinyint(1)" style="shape=partialRectangle;connectable=0;fillColor=none;top=0;left=0;bottom=0;right=0;align=left;spacingLeft=6;overflow=hidden;whiteSpace=wrap;html=1;" vertex="1" parent="-WjHHU-8ATl0b5DiGb8--45">
          <mxGeometry x="30" width="262" height="30" as="geometry">
            <mxRectangle width="262" height="30" as="alternateBounds" />
          </mxGeometry>
        </mxCell>
      </root>
    </mxGraphModel>
  </diagram>
</mxfile>
